<mxfile host="app.diagrams.net" modified="2021-09-27T09:02:38.318Z" agent="5.0 (Windows)" etag="f_-YeDgrCDWeeCfIIajL" version="14.9.6" type="github">
  <diagram id="C5RBs43oDa-KdzZeNtuy" name="Page-1">
    <mxGraphModel dx="1038" dy="566" grid="1" gridSize="10" guides="1" tooltips="1" connect="1" arrows="1" fold="1" page="1" pageScale="1" pageWidth="827" pageHeight="1169" math="0" shadow="0">
      <root>
        <mxCell id="WIyWlLk6GJQsqaUBKTNV-0" />
        <mxCell id="WIyWlLk6GJQsqaUBKTNV-1" parent="WIyWlLk6GJQsqaUBKTNV-0" />
        <mxCell id="ADaALSoo9eoFnMUX4sZ3-0" value="&lt;pre&gt;&lt;font style=&quot;font-size: 24px&quot;&gt;环境变化检测&lt;/font&gt;&lt;/pre&gt;" style="rounded=1;whiteSpace=wrap;html=1;" vertex="1" parent="WIyWlLk6GJQsqaUBKTNV-1">
          <mxGeometry x="260" y="290" width="160" height="70" as="geometry" />
        </mxCell>
        <mxCell id="ADaALSoo9eoFnMUX4sZ3-1" value="&lt;font style=&quot;font-size: 24px&quot; face=&quot;monospace&quot;&gt;静态多目标优化&lt;/font&gt;" style="ellipse;whiteSpace=wrap;html=1;" vertex="1" parent="WIyWlLk6GJQsqaUBKTNV-1">
          <mxGeometry x="20" y="530" width="190" height="80" as="geometry" />
        </mxCell>
        <mxCell id="ADaALSoo9eoFnMUX4sZ3-2" value="&lt;font style=&quot;font-size: 24px&quot; face=&quot;monospace&quot;&gt;变化应答机制&lt;/font&gt;" style="ellipse;whiteSpace=wrap;html=1;" vertex="1" parent="WIyWlLk6GJQsqaUBKTNV-1">
          <mxGeometry x="470" y="530" width="170" height="80" as="geometry" />
        </mxCell>
        <mxCell id="ADaALSoo9eoFnMUX4sZ3-3" value="" style="endArrow=classic;html=1;entryX=0.5;entryY=0;entryDx=0;entryDy=0;exitX=0.25;exitY=1;exitDx=0;exitDy=0;" edge="1" parent="WIyWlLk6GJQsqaUBKTNV-1" source="ADaALSoo9eoFnMUX4sZ3-0" target="ADaALSoo9eoFnMUX4sZ3-1">
          <mxGeometry width="50" height="50" relative="1" as="geometry">
            <mxPoint x="200" y="440" as="sourcePoint" />
            <mxPoint x="280" y="450" as="targetPoint" />
          </mxGeometry>
        </mxCell>
        <mxCell id="ADaALSoo9eoFnMUX4sZ3-4" value="" style="endArrow=classic;html=1;exitX=0.75;exitY=1;exitDx=0;exitDy=0;entryX=0.5;entryY=0;entryDx=0;entryDy=0;" edge="1" parent="WIyWlLk6GJQsqaUBKTNV-1" source="ADaALSoo9eoFnMUX4sZ3-0" target="ADaALSoo9eoFnMUX4sZ3-2">
          <mxGeometry width="50" height="50" relative="1" as="geometry">
            <mxPoint x="230" y="500" as="sourcePoint" />
            <mxPoint x="280" y="450" as="targetPoint" />
          </mxGeometry>
        </mxCell>
        <mxCell id="ADaALSoo9eoFnMUX4sZ3-5" value="" style="endArrow=classic;html=1;entryX=1;entryY=0.5;entryDx=0;entryDy=0;exitX=0;exitY=0.5;exitDx=0;exitDy=0;" edge="1" parent="WIyWlLk6GJQsqaUBKTNV-1" source="ADaALSoo9eoFnMUX4sZ3-2" target="ADaALSoo9eoFnMUX4sZ3-1">
          <mxGeometry width="50" height="50" relative="1" as="geometry">
            <mxPoint x="230" y="500" as="sourcePoint" />
            <mxPoint x="280" y="450" as="targetPoint" />
          </mxGeometry>
        </mxCell>
        <mxCell id="ADaALSoo9eoFnMUX4sZ3-7" value="&lt;font style=&quot;font-size: 24px&quot; face=&quot;monospace&quot;&gt;无变化，进化解&lt;/font&gt;" style="text;html=1;strokeColor=none;fillColor=none;align=center;verticalAlign=middle;whiteSpace=wrap;rounded=0;rotation=-45;" vertex="1" parent="WIyWlLk6GJQsqaUBKTNV-1">
          <mxGeometry x="100" y="430" width="176.57" height="20" as="geometry" />
        </mxCell>
        <mxCell id="ADaALSoo9eoFnMUX4sZ3-8" value="&lt;pre&gt;&lt;font style=&quot;font-size: 24px&quot;&gt;进化得到解&lt;/font&gt;&lt;/pre&gt;" style="text;html=1;strokeColor=none;fillColor=none;align=center;verticalAlign=middle;whiteSpace=wrap;rounded=0;" vertex="1" parent="WIyWlLk6GJQsqaUBKTNV-1">
          <mxGeometry x="320" y="540" width="40" height="20" as="geometry" />
        </mxCell>
        <mxCell id="ADaALSoo9eoFnMUX4sZ3-10" value="&lt;pre&gt;&lt;font style=&quot;font-size: 24px&quot;&gt;有变化，响应变化&lt;/font&gt;&lt;/pre&gt;" style="text;html=1;strokeColor=none;fillColor=none;align=center;verticalAlign=middle;whiteSpace=wrap;rounded=0;rotation=45;" vertex="1" parent="WIyWlLk6GJQsqaUBKTNV-1">
          <mxGeometry x="470" y="430" width="40" height="20" as="geometry" />
        </mxCell>
      </root>
    </mxGraphModel>
  </diagram>
</mxfile>
